<svg xmlns="http://www.w3.org/2000/svg" xmlns:xlink="http://www.w3.org/1999/xlink" width="500" zoomAndPan="magnify" viewBox="0 0 375 225" height="300" preserveAspectRatio="xMidYMid meet" version="1.2"><defs><clipPath id="93bb04577e"><path d="M 4.9375 72 L 82.285156 72 L 82.285156 153 L 4.9375 153 Z M 4.9375 72 "/></clipPath><clipPath id="cbbe2c007f"><path d="M 19.914062 126.417969 L 42.199219 126.417969 L 42.199219 150.355469 L 19.914062 150.355469 Z M 19.914062 126.417969 "/></clipPath><clipPath id="1c3657075b"><path d="M 42.199219 130.167969 L 42.199219 146.523438 C 42.199219 148.59375 40.519531 150.273438 38.449219 150.273438 L 23.664062 150.273438 C 21.59375 150.273438 19.914062 148.59375 19.914062 146.523438 L 19.914062 130.167969 C 19.914062 128.097656 21.59375 126.417969 23.664062 126.417969 L 38.449219 126.417969 C 40.519531 126.417969 42.199219 128.097656 42.199219 130.167969 Z M 42.199219 130.167969 "/></clipPath><clipPath id="002d3981c7"><path d="M 19.914062 126.421875 L 42.285156 126.421875 L 42.285156 150.296875 L 19.914062 150.296875 Z M 19.914062 126.421875 "/></clipPath><clipPath id="5e0344dfe5"><path d="M 42.195312 130.171875 L 42.195312 146.523438 C 42.195312 148.59375 40.515625 150.273438 38.445312 150.273438 L 23.664062 150.273438 C 21.59375 150.273438 19.914062 148.59375 19.914062 146.523438 L 19.914062 130.171875 C 19.914062 128.101562 21.59375 126.421875 23.664062 126.421875 L 38.445312 126.421875 C 40.515625 126.421875 42.195312 128.101562 42.195312 130.171875 Z M 42.195312 130.171875 "/></clipPath><clipPath id="aa5d741b7e"><path d="M 40.972656 126.417969 L 63.257812 126.417969 L 63.257812 150.355469 L 40.972656 150.355469 Z M 40.972656 126.417969 "/></clipPath><clipPath id="29dbdf35c8"><path d="M 63.257812 130.167969 L 63.257812 146.523438 C 63.257812 148.59375 61.578125 150.273438 59.507812 150.273438 L 44.722656 150.273438 C 42.652344 150.273438 40.972656 148.59375 40.972656 146.523438 L 40.972656 130.167969 C 40.972656 128.097656 42.652344 126.417969 44.722656 126.417969 L 59.507812 126.417969 C 61.578125 126.417969 63.257812 128.097656 63.257812 130.167969 Z M 63.257812 130.167969 "/></clipPath><clipPath id="2d8edc1748"><path d="M 40.972656 126.421875 L 63.34375 126.421875 L 63.34375 150.296875 L 40.972656 150.296875 Z M 40.972656 126.421875 "/></clipPath><clipPath id="6d19c1356b"><path d="M 63.253906 130.171875 L 63.253906 146.523438 C 63.253906 148.59375 61.574219 150.273438 59.503906 150.273438 L 44.722656 150.273438 C 42.652344 150.273438 40.972656 148.59375 40.972656 146.523438 L 40.972656 130.171875 C 40.972656 128.101562 42.652344 126.421875 44.722656 126.421875 L 59.503906 126.421875 C 61.574219 126.421875 63.253906 128.101562 63.253906 130.171875 Z M 63.253906 130.171875 "/></clipPath><clipPath id="ad4141fee8"><path d="M 19.914062 104.824219 L 42.199219 104.824219 L 42.199219 128.765625 L 19.914062 128.765625 Z M 19.914062 104.824219 "/></clipPath><clipPath id="59ad834878"><path d="M 42.199219 108.574219 L 42.199219 124.929688 C 42.199219 127 40.519531 128.679688 38.449219 128.679688 L 23.664062 128.679688 C 21.59375 128.679688 19.914062 127 19.914062 124.929688 L 19.914062 108.574219 C 19.914062 106.503906 21.59375 104.824219 23.664062 104.824219 L 38.449219 104.824219 C 40.519531 104.824219 42.199219 106.503906 42.199219 108.574219 Z M 42.199219 108.574219 "/></clipPath><clipPath id="ced712b86d"><path d="M 19.914062 104.832031 L 42.285156 104.832031 L 42.285156 128.703125 L 19.914062 128.703125 Z M 19.914062 104.832031 "/></clipPath><clipPath id="1039c9aa65"><path d="M 42.195312 108.582031 L 42.195312 124.933594 C 42.195312 127.003906 40.515625 128.683594 38.445312 128.683594 L 23.664062 128.683594 C 21.59375 128.683594 19.914062 127.003906 19.914062 124.933594 L 19.914062 108.582031 C 19.914062 106.507812 21.59375 104.832031 23.664062 104.832031 L 38.445312 104.832031 C 40.515625 104.832031 42.195312 106.507812 42.195312 108.582031 Z M 42.195312 108.582031 "/></clipPath></defs><g id="529b21c633"><rect x="0" width="375" y="0" height="225" style="fill:#ffffff;fill-opacity:1;stroke:none;"/><rect x="0" width="375" y="0" height="225" style="fill:#ffffff;fill-opacity:1;stroke:none;"/><g clip-rule="nonzero" clip-path="url(#93bb04577e)"><path style=" stroke:none;fill-rule:evenodd;fill:#3f7ab0;fill-opacity:1;" d="M 82.28125 102 C 82.28125 98.597656 80.578125 95.414062 77.75 93.523438 C 71.023438 89.039062 56.601562 79.433594 49.253906 74.539062 C 45.835938 72.265625 41.382812 72.265625 37.964844 74.539062 C 30.617188 79.433594 16.195312 89.039062 9.46875 93.523438 C 6.640625 95.414062 4.9375 98.597656 4.9375 102 C 4.9375 110.855469 4.9375 131.050781 4.9375 142.417969 C 4.9375 145.121094 6.003906 147.714844 7.910156 149.621094 C 9.820312 151.53125 12.410156 152.597656 15.113281 152.597656 C 29.203125 152.597656 58 152.597656 72.101562 152.597656 C 74.804688 152.597656 77.382812 151.53125 79.304688 149.621094 C 81.214844 147.714844 82.28125 145.121094 82.28125 142.417969 C 82.28125 131.050781 82.28125 110.855469 82.28125 102 Z M 78.210938 102 L 78.210938 142.417969 C 78.210938 144.042969 77.574219 145.582031 76.429688 146.746094 C 75.265625 147.890625 73.726562 148.523438 72.101562 148.523438 L 15.113281 148.523438 C 13.492188 148.523438 11.949219 147.890625 10.789062 146.746094 C 9.644531 145.582031 9.007812 144.042969 9.007812 142.417969 C 9.007812 131.050781 9.007812 110.855469 9.007812 102 C 9.007812 99.964844 10.027344 98.054688 11.726562 96.910156 L 40.222656 77.925781 C 42.273438 76.558594 44.945312 76.558594 46.996094 77.925781 C 54.339844 82.820312 68.765625 92.425781 75.488281 96.910156 C 77.191406 98.054688 78.210938 99.964844 78.210938 102 "/></g><g clip-rule="nonzero" clip-path="url(#cbbe2c007f)"><g clip-rule="nonzero" clip-path="url(#1c3657075b)"><path style=" stroke:none;fill-rule:nonzero;fill:#3f7ab0;fill-opacity:1;" d="M 19.914062 126.417969 L 42.199219 126.417969 L 42.199219 150.269531 L 19.914062 150.269531 Z M 19.914062 126.417969 "/></g></g><g clip-rule="nonzero" clip-path="url(#002d3981c7)"><g clip-rule="nonzero" clip-path="url(#5e0344dfe5)"><path style="fill:none;stroke-width:23.736727;stroke-linecap:butt;stroke-linejoin:miter;stroke:#3f7ab0;stroke-opacity:1;stroke-miterlimit:4;" d="M 58.765285 9.887741 L 58.765285 53.013585 C 58.765285 58.473856 54.335253 62.903888 48.874982 62.903888 L 9.890703 62.903888 C 4.430432 62.903888 0.000399963 58.473856 0.000399963 53.013585 L 0.000399963 9.887741 C 0.000399963 4.42747 4.430432 -0.00256181 9.890703 -0.00256181 L 48.874982 -0.00256181 C 54.335253 -0.00256181 58.765285 4.42747 58.765285 9.887741 Z M 58.765285 9.887741 " transform="matrix(0.379159,0,0,0.379159,19.913911,126.422846)"/></g></g><g clip-rule="nonzero" clip-path="url(#aa5d741b7e)"><g clip-rule="nonzero" clip-path="url(#29dbdf35c8)"><path style=" stroke:none;fill-rule:nonzero;fill:#3f7ab0;fill-opacity:1;" d="M 40.972656 126.417969 L 63.257812 126.417969 L 63.257812 150.269531 L 40.972656 150.269531 Z M 40.972656 126.417969 "/></g></g><g clip-rule="nonzero" clip-path="url(#2d8edc1748)"><g clip-rule="nonzero" clip-path="url(#6d19c1356b)"><path style="fill:none;stroke-width:23.736727;stroke-linecap:butt;stroke-linejoin:miter;stroke:#3f7ab0;stroke-opacity:1;stroke-miterlimit:4;" d="M 58.764662 9.887741 L 58.764662 53.013585 C 58.764662 58.473856 54.334631 62.903888 48.874359 62.903888 L 9.890081 62.903888 C 4.429809 62.903888 -0.000222711 58.473856 -0.000222711 53.013585 L -0.000222711 9.887741 C -0.000222711 4.42747 4.429809 -0.00256181 9.890081 -0.00256181 L 48.874359 -0.00256181 C 54.334631 -0.00256181 58.764662 4.42747 58.764662 9.887741 Z M 58.764662 9.887741 " transform="matrix(0.379159,0,0,0.379159,40.972741,126.422846)"/></g></g><g clip-rule="nonzero" clip-path="url(#ad4141fee8)"><g clip-rule="nonzero" clip-path="url(#59ad834878)"><path style=" stroke:none;fill-rule:nonzero;fill:#3f7ab0;fill-opacity:1;" d="M 19.914062 104.824219 L 42.199219 104.824219 L 42.199219 128.675781 L 19.914062 128.675781 Z M 19.914062 104.824219 "/></g></g><g clip-rule="nonzero" clip-path="url(#ced712b86d)"><g clip-rule="nonzero" clip-path="url(#1039c9aa65)"><path style="fill:none;stroke-width:23.736727;stroke-linecap:butt;stroke-linejoin:miter;stroke:#3f7ab0;stroke-opacity:1;stroke-miterlimit:4;" d="M 58.765285 9.893004 L 58.765285 53.018847 C 58.765285 58.479119 54.335253 62.90915 48.874982 62.90915 L 9.890703 62.90915 C 4.430432 62.90915 0.000399963 58.479119 0.000399963 53.018847 L 0.000399963 9.893004 C 0.000399963 4.42243 4.430432 0.00270076 9.890703 0.00270076 L 48.874982 0.00270076 C 54.335253 0.00270076 58.765285 4.42243 58.765285 9.893004 Z M 58.765285 9.893004 " transform="matrix(0.379159,0,0,0.379159,19.913911,104.831007)"/></g></g><g style="fill:#3f7ab0;fill-opacity:1;"><g transform="translate(90.4901, 141.233457)"><path style="stroke:none" d="M 4.296875 -31.953125 L 10.234375 -31.953125 L 10.234375 0 L 4.296875 0 Z M 4.296875 -31.953125 "/></g></g><g style="fill:#3f7ab0;fill-opacity:1;"><g transform="translate(107.653056, 141.233457)"><path style="stroke:none" d="M 32.6875 -31.953125 L 32.6875 0 L 27.796875 0 L 10.1875 -21.640625 L 10.1875 0 L 4.296875 0 L 4.296875 -31.953125 L 9.171875 -31.953125 L 26.796875 -10.3125 L 26.796875 -31.953125 Z M 32.6875 -31.953125 "/></g></g><g style="fill:#3f7ab0;fill-opacity:1;"><g transform="translate(146.999226, 141.233457)"><path style="stroke:none" d="M 33.515625 -31.953125 L 19.59375 0 L 13.75 0 L -0.234375 -31.953125 L 6.203125 -31.953125 L 16.84375 -7.3125 L 27.578125 -31.953125 Z M 33.515625 -31.953125 "/></g></g><g style="fill:#3f7ab0;fill-opacity:1;"><g transform="translate(182.191661, 141.233457)"><path style="stroke:none" d="M 28.265625 -4.96875 L 28.265625 0 L 4.296875 0 L 4.296875 -31.953125 L 27.625 -31.953125 L 27.625 -26.984375 L 10.234375 -26.984375 L 10.234375 -18.671875 L 25.65625 -18.671875 L 25.65625 -13.78125 L 10.234375 -13.78125 L 10.234375 -4.96875 Z M 28.265625 -4.96875 "/></g></g><g style="fill:#3f7ab0;fill-opacity:1;"><g transform="translate(215.375863, 141.233457)"><path style="stroke:none" d="M 32.6875 -31.953125 L 32.6875 0 L 27.796875 0 L 10.1875 -21.640625 L 10.1875 0 L 4.296875 0 L 4.296875 -31.953125 L 9.171875 -31.953125 L 26.796875 -10.3125 L 26.796875 -31.953125 Z M 32.6875 -31.953125 "/></g></g><g style="fill:#3f7ab0;fill-opacity:1;"><g transform="translate(254.950298, 141.233457)"><path style="stroke:none" d="M 10.78125 -26.9375 L 0.1875 -26.9375 L 0.1875 -31.953125 L 27.296875 -31.953125 L 27.296875 -26.9375 L 16.703125 -26.9375 L 16.703125 0 L 10.78125 0 Z M 10.78125 -26.9375 "/></g></g><g style="fill:#3f7ab0;fill-opacity:1;"><g transform="translate(285.03068, 141.233457)"><path style="stroke:none" d="M 25.203125 0 L 18.671875 -9.359375 C 18.398438 -9.328125 17.988281 -9.3125 17.4375 -9.3125 L 10.234375 -9.3125 L 10.234375 0 L 4.296875 0 L 4.296875 -31.953125 L 17.4375 -31.953125 C 20.207031 -31.953125 22.617188 -31.492188 24.671875 -30.578125 C 26.734375 -29.671875 28.3125 -28.363281 29.40625 -26.65625 C 30.5 -24.957031 31.046875 -22.9375 31.046875 -20.59375 C 31.046875 -18.1875 30.457031 -16.113281 29.28125 -14.375 C 28.113281 -12.644531 26.4375 -11.351562 24.25 -10.5 L 31.59375 0 Z M 25.0625 -20.59375 C 25.0625 -22.632812 24.390625 -24.203125 23.046875 -25.296875 C 21.710938 -26.390625 19.753906 -26.9375 17.171875 -26.9375 L 10.234375 -26.9375 L 10.234375 -14.203125 L 17.171875 -14.203125 C 19.753906 -14.203125 21.710938 -14.753906 23.046875 -15.859375 C 24.390625 -16.972656 25.0625 -18.550781 25.0625 -20.59375 Z M 25.0625 -20.59375 "/></g></g><g style="fill:#3f7ab0;fill-opacity:1;"><g transform="translate(320.999185, 141.233457)"><path style="stroke:none" d="M 25.015625 -7.390625 L 9.046875 -7.390625 L 5.890625 0 L -0.234375 0 L 14.15625 -31.953125 L 20 -31.953125 L 34.421875 0 L 28.21875 0 Z M 23.0625 -12.046875 L 17.03125 -26.03125 L 11.046875 -12.046875 Z M 23.0625 -12.046875 "/></g></g></g></svg>